<svg width="146" height="126" viewBox="0 0 146 126" fill="none" xmlns="http://www.w3.org/2000/svg">
<path d="M95.318 23.2256C95.318 23.2256 93.5467 25.824 93.0865 26.4053C92.6264 26.9866 92.3877 27.7824 92.4984 28.6197L101.874 99.8117C102.265 102.777 104.569 104.971 107.282 104.964L138.031 104.908C138.802 104.908 139.508 104.621 140.069 104.151C141.006 103.362 142.913 100.244 142.857 100.262C142.245 100.936 141.387 101.338 140.522 101.355C140.522 101.355 109.496 101.49 109.53 101.462C108.316 101.369 107.133 100.839 106.206 99.9743C105.278 99.1094 104.607 97.9122 104.32 96.6078C104.32 96.6078 95.0032 25.4538 94.9721 25.4469C94.8856 24.7341 94.9236 23.9799 95.318 23.2256Z" fill="#000001"/>
<path d="M143.833 97.1132L134.305 25.4367C134.052 23.5268 132.568 22.1047 130.817 22.0978L97.4559 21.9248C95.9233 21.9179 94.7401 23.4161 94.9615 25.0907L104.341 96.2793C104.732 99.2445 107.036 101.438 109.748 101.431L140.498 101.376C142.556 101.372 144.134 99.3587 143.833 97.1132Z" fill="#000001"/>
<path d="M140.536 99.5104L109.949 99.8772C107.759 99.9049 105.894 98.1334 105.586 95.7425L96.6294 25.3151C96.5187 24.4328 97.138 23.6474 97.9475 23.6543L131.146 23.8377C132.132 23.8446 132.966 24.6439 133.101 25.7234L142.217 97.3549C142.359 98.4863 141.57 99.4966 140.536 99.5104Z" fill="white"/>
<path d="M123.32 25.9451C123.32 25.305 122.853 24.7896 122.272 24.7896H110.253C109.676 24.7896 109.205 25.305 109.205 25.9451C109.205 26.5851 109.672 27.1006 110.253 27.1006H122.272C122.853 27.1006 123.32 26.5851 123.32 25.9451Z" fill="#000001"/>
<path d="M123.089 77.0922C128.359 76.5083 131.846 68.9481 130.877 60.206C129.909 51.4639 124.852 44.8503 119.582 45.4341C114.312 46.0179 110.825 53.5781 111.793 62.3202C112.762 71.0624 117.819 77.676 123.089 77.0922Z" fill="#4CA6FF"/>
<path d="M109.575 59.102L121.518 70.205L132.779 43.335L130.592 42.2036L120.767 65.8766L110.326 55.905L109.575 59.102Z" fill="#131E7D"/>
<path d="M107.267 105.137C104.492 105.137 102.098 102.86 101.7 99.836L92.3247 28.6439C92.214 27.7962 92.4389 26.9416 92.9475 26.2981C93.3972 25.7272 95.1548 23.153 95.172 23.1287C95.2274 23.0492 95.3347 23.0319 95.4108 23.0838C95.4903 23.1391 95.5111 23.2464 95.4557 23.3225C95.3831 23.4298 93.674 25.9313 93.2173 26.5126C92.7676 27.0835 92.5669 27.8412 92.6638 28.5955L102.039 99.7875C102.417 102.642 104.658 104.791 107.264 104.791C107.267 104.791 107.27 104.791 107.277 104.791L138.027 104.735C138.729 104.735 139.393 104.486 139.954 104.019C140.86 103.258 142.742 100.185 142.76 100.154C142.812 100.071 142.915 100.047 142.998 100.095C143.081 100.144 143.106 100.251 143.057 100.334C142.978 100.462 141.127 103.486 140.179 104.282C139.556 104.804 138.812 105.081 138.03 105.081L107.281 105.137C107.277 105.137 107.27 105.137 107.267 105.137Z" fill="#000001"/>
<path d="M109.734 101.604C106.959 101.604 104.565 99.3271 104.168 96.3031L94.7884 25.1145C94.6673 24.208 94.9337 23.3119 95.5149 22.6511C96.0235 22.0732 96.712 21.7515 97.4454 21.7515C97.4489 21.7515 97.4524 21.7515 97.4558 21.7515L130.817 21.9245C132.641 21.9314 134.215 23.433 134.474 25.4121L144.002 97.0886C144.161 98.2857 143.815 99.4725 143.054 100.348C142.379 101.119 141.473 101.545 140.497 101.545L109.748 101.6C109.745 101.604 109.738 101.604 109.734 101.604ZM97.4454 22.0975C96.8123 22.0975 96.2207 22.3743 95.7744 22.8794C95.2589 23.4641 95.0271 24.2634 95.1309 25.0696L104.51 96.2582C104.887 99.1126 107.129 101.261 109.734 101.261C109.738 101.261 109.741 101.261 109.748 101.261L140.497 101.206C141.373 101.206 142.189 100.822 142.795 100.126C143.493 99.3271 143.808 98.2373 143.66 97.1405L134.132 25.4605C133.893 23.6475 132.468 22.2774 130.814 22.2705L97.4524 22.0975C97.4524 22.0975 97.4489 22.0975 97.4454 22.0975Z" fill="#000001"/>
<path d="M109.896 100.05C107.651 100.05 105.727 98.2165 105.412 95.7634L96.4553 25.336C96.393 24.8308 96.5418 24.3361 96.8636 23.9728C97.1507 23.651 97.5416 23.4814 97.9464 23.4814L131.145 23.6648C132.211 23.6717 133.128 24.5471 133.27 25.7027L142.386 97.3342C142.465 97.9605 142.282 98.5867 141.881 99.0434C141.528 99.4517 141.047 99.6766 140.535 99.6835L109.948 100.05C109.931 100.05 109.913 100.05 109.896 100.05ZM97.936 23.8274C97.6281 23.8274 97.341 23.9624 97.123 24.2046C96.867 24.4918 96.7494 24.8896 96.7978 25.2945L105.755 95.7219C106.049 98.002 107.824 99.7043 109.896 99.7043C109.91 99.7043 109.927 99.7043 109.945 99.7043L140.531 99.3375C140.946 99.3306 141.334 99.1472 141.621 98.8151C141.957 98.431 142.109 97.9051 142.043 97.3757L132.927 25.7443C132.802 24.7616 132.038 24.0143 131.142 24.0108L97.943 23.8274C97.943 23.8274 97.9395 23.8274 97.936 23.8274Z" fill="#000001"/>
<path d="M129.039 28.5433C129.001 28.5433 128.966 28.5329 128.935 28.5087C128.859 28.4499 128.845 28.3427 128.9 28.2665L131.146 25.3051C131.204 25.229 131.312 25.2151 131.388 25.2705C131.464 25.3293 131.478 25.4365 131.422 25.5127L129.177 28.4741C129.142 28.5191 129.091 28.5433 129.039 28.5433Z" fill="#000001"/>
<path d="M131.775 28.474C131.73 28.474 131.689 28.4567 131.654 28.4256L128.651 25.4918C128.582 25.4261 128.582 25.3154 128.648 25.2462C128.714 25.177 128.824 25.177 128.894 25.2427L131.896 28.1765C131.966 28.2422 131.966 28.353 131.9 28.4221C131.865 28.4567 131.82 28.474 131.775 28.474Z" fill="#000001"/>
<path d="M122.448 77.3045C120.961 77.3045 119.456 76.7579 118.044 75.6922C114.764 73.2183 112.384 68.3778 111.671 62.7485C111.613 62.3022 111.568 61.8247 111.53 61.2919C111.523 61.195 111.595 61.1119 111.689 61.1085C111.782 61.1016 111.865 61.1742 111.876 61.2676C111.914 61.7935 111.959 62.2641 112.017 62.7035C112.706 68.1599 115.097 73.0315 118.255 75.4154C119.878 76.6402 121.628 77.1523 123.31 76.8928C128.451 76.1039 131.751 68.447 130.665 59.8317C130.35 57.3406 129.676 54.9152 128.714 52.815C128.676 52.7285 128.714 52.6247 128.8 52.5866C128.887 52.5451 128.991 52.5831 129.029 52.6731C130.004 54.8044 130.689 57.2679 131.008 59.7937C132.118 68.5958 128.686 76.4222 123.362 77.2422C123.061 77.2803 122.756 77.3045 122.448 77.3045Z" fill="#000001"/>
<path d="M111.744 57.2923C111.737 57.2923 111.734 57.2923 111.727 57.2923C111.63 57.282 111.561 57.1989 111.571 57.1055C112.18 50.6665 115.294 45.9229 119.317 45.3036C122.189 44.8642 125.157 46.5319 127.458 49.8811C127.513 49.9607 127.492 50.0679 127.413 50.1233C127.333 50.1787 127.226 50.1579 127.171 50.0783C124.95 46.8433 122.106 45.2275 119.369 45.6461C115.505 46.2412 112.509 50.8568 111.914 57.1366C111.907 57.2266 111.831 57.2923 111.744 57.2923Z" fill="#000001"/>
<path d="M121.517 70.3776C121.476 70.3776 121.431 70.3603 121.399 70.3327L109.457 59.2297C109.412 59.1881 109.391 59.1224 109.405 59.0636L110.156 55.8666C110.169 55.8078 110.214 55.7593 110.273 55.7386C110.332 55.7213 110.398 55.7351 110.443 55.7801L120.701 65.5787L130.429 42.1375C130.446 42.0925 130.485 42.0579 130.53 42.0406C130.575 42.0233 130.626 42.0268 130.668 42.051L132.854 43.1824C132.934 43.2239 132.969 43.3208 132.934 43.4038L121.673 70.2738C121.652 70.3257 121.604 70.3638 121.548 70.3742C121.541 70.3776 121.528 70.3776 121.517 70.3776ZM109.765 59.0428L121.451 69.9071L132.557 43.4142L130.678 42.442L120.926 65.942C120.905 65.9939 120.856 66.0319 120.801 66.0458C120.746 66.0562 120.687 66.0423 120.645 66.0008L110.422 56.2368L109.765 59.0428Z" fill="#000001"/>
<path d="M145.447 83.5325C145.177 85.4182 144.627 87.2589 143.821 88.9473C143.634 89.3452 143.358 89.8123 143.025 90.0684L136.926 44.2274C136.926 44.2274 137.109 43.8779 137.092 43.8641C137.372 43.2724 137.756 42.7535 138.175 42.2725C138.369 42.0511 138.569 41.8435 138.791 41.6566C139.095 41.4075 139.431 41.2103 139.773 41.0269C140.06 40.8747 140.355 40.7294 140.669 40.6636C141.078 40.5806 141.5 40.636 141.97 40.7709C142.524 41.0027 142.967 41.4906 143.25 42.0649C143.531 42.6393 143.662 43.2897 143.703 43.9368C143.793 45.3657 143.475 46.7774 143.25 48.1856C142.859 50.6041 142.738 53.071 142.818 55.7352C143.181 60.4961 144.088 65.1844 144.97 70.0041C145.8 74.457 146.091 79.0242 145.447 83.5325Z" fill="#D1D1D1"/>
<path d="M92.8606 36.7194C93.7428 37.4979 94.5212 38.4217 95.1544 39.4527C95.5799 40.1378 95.9397 40.8782 96.1369 41.6775C96.3306 42.4767 96.3479 43.3486 96.0919 44.1237C95.8359 44.9056 95.3481 45.5803 94.6389 45.8571L95.4069 51.6249L94.075 50.7287C94.075 50.7287 89.0066 46.0786 88.927 45.9229C88.4426 45.2378 88.0205 44.4939 87.6815 43.7085C87.5085 43.3106 87.3528 42.8988 87.2733 42.4664C87.1729 41.9439 87.1833 41.4041 87.2214 40.8713C87.3113 39.6257 87.5777 38.3628 88.2281 37.3352C88.4807 36.9373 88.7851 36.581 89.1346 36.2869C89.4459 36.017 89.7988 35.7956 90.1863 35.6987C91.0616 35.4807 91.9715 35.934 92.8606 36.7194Z" fill="#D1D1D1"/>
<path d="M93.5631 52.0815C95.8292 53.4067 97.898 55.2612 99.2023 57.6936C99.4653 58.1814 99.6971 58.697 99.8181 59.2506C99.9427 59.8042 99.9496 60.3993 99.7697 60.9321C99.6625 61.247 99.4929 61.5341 99.2923 61.7902C98.9844 62.1777 98.5969 62.4925 98.1679 62.6967C97.7666 62.8904 97.3341 62.9942 96.8982 63.0461L97.0539 64.1637C97.0539 64.1637 97.514 64.5097 97.5555 64.5374C98.3374 65.2709 99.0985 66.0425 99.7282 66.9351C100.358 67.8313 100.853 68.8589 101.036 69.9764C101.16 70.7272 101.129 71.5438 100.773 72.1977C100.282 73.1042 99.2369 73.5298 98.289 73.3949L98.5657 75.5504C98.5657 75.5504 99.1055 75.9933 99.1262 76.059C99.659 76.5261 100.091 77.1178 100.475 77.7406C100.707 78.1108 100.929 78.4983 101.046 78.9308C101.164 79.3633 101.16 79.8512 100.963 80.2456C100.804 80.5674 100.527 80.7992 100.226 80.9514C99.9254 81.1002 99.6348 81.1763 99.3061 81.2386L99.9773 86.4285C99.9773 86.4285 99.5621 86.2451 99.5206 86.2071C98.7041 85.8023 97.9222 85.311 97.0712 84.6017C96.6906 84.4667 96.355 84.2176 96.0264 83.965C94.4245 82.7368 92.8677 81.4151 91.5634 79.8131C90.2591 78.2111 89.2143 76.3151 88.7715 74.2183C88.6296 73.5367 88.5604 72.7652 88.9272 72.1908C89.3977 71.4538 90.3456 71.3743 91.1621 71.3708C91.1621 71.3708 88.3494 66.814 88.3355 66.8002C88.1868 66.3158 88.038 65.8314 87.8893 65.3505C87.6159 64.4647 87.3392 63.5167 87.5294 62.5652C87.7024 61.6552 88.3425 60.8698 89.1486 60.5896C89.3977 60.5031 89.6571 60.4616 89.9062 60.3785C89.9062 60.3785 87.7785 55.8667 87.7439 55.7387C87.6159 55.1471 87.4845 54.5519 87.4637 53.943C87.443 53.334 87.5364 52.7078 87.8201 52.1888C88.1833 51.5314 88.8372 51.1024 89.5222 50.9536C90.2072 50.8048 90.9234 50.9086 91.5911 51.1404C92.2623 51.355 92.8954 51.6906 93.5631 52.0815Z" fill="#D1D1D1"/>
<path d="M143.371 89.9057C143.344 89.9057 143.316 89.8988 143.288 89.8849C143.205 89.84 143.174 89.7327 143.219 89.6497C144.99 86.4077 145.803 82.3215 145.63 77.5052C145.499 73.8273 144.814 70.1459 144.153 66.5821C144.053 66.0528 143.956 65.5199 143.859 64.9906C143.122 60.977 142.427 56.697 142.686 52.3479C142.766 51.0123 142.939 49.6699 143.105 48.3724C143.212 47.542 143.323 46.6805 143.409 45.8328C143.51 44.8155 143.582 43.7395 143.302 42.7465C143.001 41.6843 142.288 40.8989 141.486 40.7432C140.939 40.6394 140.313 40.7985 139.631 41.2207C138.632 41.8434 137.798 42.8122 137.286 43.954C137.248 44.0405 137.144 44.0786 137.057 44.0405C136.971 44.0025 136.933 43.8987 136.971 43.8122C137.511 42.6116 138.389 41.5839 139.448 40.9266C140.206 40.456 140.915 40.2761 141.551 40.4006C142.479 40.5806 143.299 41.4628 143.634 42.6462C143.935 43.698 143.859 44.8121 143.755 45.8605C143.669 46.7151 143.558 47.5766 143.451 48.4104C143.285 49.701 143.112 51.04 143.032 52.3617C142.773 56.6728 143.468 60.9286 144.198 64.9214C144.295 65.4507 144.392 65.9801 144.492 66.5129C145.156 70.0871 145.841 73.7823 145.976 77.4879C146.153 82.3665 145.326 86.5115 143.524 89.8123C143.489 89.8746 143.43 89.9057 143.371 89.9057Z" fill="#000001"/>
<path d="M92.7847 46.3169C92.5978 46.3169 92.411 46.3065 92.2346 46.2823C91.4146 46.1819 90.6777 45.8602 90.1034 45.3516C90.0308 45.2893 90.0238 45.1786 90.0896 45.106C90.1519 45.0333 90.2626 45.0264 90.3352 45.0921C90.8576 45.5557 91.5288 45.8463 92.2795 45.9398C92.93 46.0193 93.6461 45.9432 94.4072 45.7114C94.5006 45.6837 94.5941 45.7356 94.6217 45.8256C94.6494 45.9155 94.5975 46.0124 94.5076 46.0401C93.9056 46.2269 93.3278 46.3169 92.7847 46.3169Z" fill="#000001"/>
<path d="M95.0816 51.6177C95.0401 51.6177 95.002 51.6039 94.9674 51.5762L93.6597 50.4586C92.8605 49.777 92.0613 49.0954 91.2656 48.4138C90.4941 47.7564 89.6153 47.0091 88.8853 46.151C88.0689 45.1926 87.5153 44.1927 87.242 43.172C87.0414 42.4108 86.9722 41.5596 87.031 40.6393C87.1521 38.8297 87.7644 37.3177 88.7573 36.3801C89.0687 36.086 89.3939 35.8749 89.7226 35.7504C90.3038 35.5324 90.9992 35.5635 91.6773 35.8334C92.1997 36.041 92.7083 36.3801 93.3206 36.9233C93.3933 36.9856 93.4002 37.0963 93.3345 37.169C93.2687 37.2416 93.1615 37.2485 93.0888 37.1828C92.5041 36.6673 92.0302 36.3489 91.5458 36.1552C90.9473 35.913 90.3419 35.8853 89.8402 36.0721C89.5531 36.1794 89.2694 36.3662 88.9926 36.6257C88.0654 37.5011 87.4911 38.9335 87.3769 40.6566C87.3181 41.5389 87.3839 42.3554 87.5741 43.0786C87.8371 44.0473 88.3664 45.0058 89.1483 45.9226C89.8644 46.76 90.6913 47.4658 91.4905 48.1474C92.2862 48.829 93.0854 49.5106 93.8845 50.1922L95.1923 51.3098C95.2649 51.3721 95.2719 51.4828 95.2096 51.5555C95.1785 51.597 95.13 51.6177 95.0816 51.6177Z" fill="#000001"/>
<path d="M92.2309 44.9982C92.1963 44.9982 92.1652 44.9878 92.134 44.9705C91.3729 44.4654 90.7951 43.7977 90.4561 43.0469C90.0651 42.1751 90.0029 41.2064 90.29 40.3968C90.6083 39.4939 91.3729 38.8296 92.1894 38.7431C93.0647 38.6462 93.8708 39.1687 94.625 39.7084C94.6699 39.7395 94.6976 39.7914 94.6976 39.8467C94.7184 40.7809 94.7115 41.8603 94.3828 42.8497C94.0057 44.0053 93.2549 44.7664 92.2655 44.9982C92.2551 44.9982 92.2447 44.9982 92.2309 44.9982ZM92.397 39.0752C92.3416 39.0752 92.2828 39.0787 92.2274 39.0856C91.539 39.1583 90.8955 39.7326 90.6187 40.511C90.3592 41.2375 90.418 42.1128 90.7709 42.9051C91.0719 43.5763 91.5874 44.1748 92.262 44.6418C93.3795 44.3443 93.8638 43.3272 94.0576 42.739C94.3586 41.8326 94.3724 40.8224 94.3551 39.9402C93.7289 39.4904 93.0681 39.0752 92.397 39.0752Z" fill="#000001"/>
<path d="M89.8088 60.3061C89.75 60.3061 89.6912 60.2749 89.66 60.223C88.9266 58.9913 88.3073 57.6696 87.8195 56.2994C87.5808 55.6317 87.3317 54.8324 87.2971 53.9917C87.2625 53.0886 87.4943 52.2721 87.951 51.7012C88.4457 51.0818 89.238 50.7185 90.1236 50.7047C91.0058 50.6978 91.8431 51.0265 92.4001 51.2756C93.5141 51.7738 94.5624 52.4381 95.5172 53.2581C95.5899 53.3204 95.5968 53.4311 95.5345 53.5038C95.4723 53.5765 95.365 53.5834 95.2889 53.5211C94.3617 52.7253 93.3411 52.0783 92.2548 51.5939C91.7289 51.3586 90.9297 51.0369 90.1236 51.0507C89.3417 51.0611 88.6463 51.3759 88.2174 51.9157C87.8126 52.4243 87.605 53.1543 87.6396 53.9778C87.6707 54.7701 87.9129 55.5383 88.1412 56.1818C88.6221 57.5312 89.231 58.8321 89.9541 60.0431C90.0025 60.1262 89.9749 60.23 89.8953 60.2819C89.8676 60.2992 89.8399 60.3061 89.8088 60.3061Z" fill="#000001"/>
<path d="M97.0088 61.4056C96.9707 61.4056 96.9292 61.4056 96.8911 61.4022C96.3168 61.3676 95.7252 61.0943 95.1371 60.5926C94.8188 60.3228 94.5282 60.0183 94.2445 59.7208C94.0888 59.5582 93.9331 59.3956 93.774 59.2399C92.9817 58.458 92.9056 57.3094 93.1859 56.5206C93.5076 55.628 94.3794 55.0329 95.2201 55.1367C95.4381 55.1609 95.6664 55.2336 95.9467 55.3616C97.1575 55.9221 98.1539 57.0741 98.6141 58.4372C98.7974 58.9908 98.9462 59.7934 98.6071 60.4681C98.3165 61.0389 97.6869 61.4056 97.0088 61.4056ZM94.0162 58.9908C94.1788 59.1499 94.3345 59.316 94.4936 59.4821C94.7704 59.7727 95.0575 60.0702 95.3585 60.3297C95.8913 60.7794 96.4137 61.0251 96.9119 61.0562C97.4066 61.0873 98.0155 60.8694 98.2958 60.3089C98.5829 59.7381 98.448 59.0323 98.2819 58.541C97.8564 57.2679 96.9257 56.1954 95.7979 55.673C95.5557 55.5623 95.3551 55.5 95.1752 55.4758C94.4901 55.3927 93.774 55.8875 93.5076 56.6313C93.2689 57.3198 93.3312 58.3162 94.0162 58.9908Z" fill="#000001"/>
<path d="M91.0203 71.2565C90.9649 71.2565 90.9061 71.2288 90.875 71.1769C89.8821 69.6303 88.8545 68.0318 88.0623 66.2984C87.7232 65.5545 87.3288 64.5649 87.2838 63.5235C87.2354 62.4302 87.6229 61.4025 88.2941 60.842C88.7369 60.4684 89.3147 60.2642 89.9651 60.2469C90.4702 60.2365 90.9891 60.323 91.6638 60.5376C93.6358 61.1534 95.4729 62.3056 96.9709 63.8626C97.0366 63.9318 97.0366 64.0425 96.9674 64.1082C96.8982 64.174 96.7875 64.174 96.7218 64.1048C95.2618 62.5893 93.4766 61.4683 91.56 60.8697C90.9199 60.669 90.4218 60.5825 89.972 60.5929C89.5741 60.6033 88.9964 60.7002 88.5155 61.105C87.9239 61.5998 87.5848 62.5201 87.6298 63.5097C87.6713 64.4854 88.0311 65.3919 88.3806 66.1531C89.1659 67.8658 90.183 69.4539 91.1725 70.9901C91.2244 71.0697 91.2002 71.1769 91.1206 71.2288C91.0825 71.2461 91.0514 71.2565 91.0203 71.2565Z" fill="#000001"/>
<path d="M97.6762 73.467C96.9462 73.467 96.2197 73.2664 95.5831 72.8823C95.5001 72.8339 95.4758 72.7267 95.5243 72.6436C95.5727 72.5606 95.68 72.5364 95.763 72.5848C96.4653 73.0104 97.2956 73.1903 98.0983 73.0934C98.1917 73.0795 98.2782 73.1487 98.292 73.2456C98.3024 73.339 98.2366 73.4255 98.1398 73.4393C97.9841 73.4566 97.8284 73.467 97.6762 73.467Z" fill="#000001"/>
<path d="M97.853 72.3217C97.8357 72.3217 97.8184 72.3217 97.7976 72.3217C97.1645 72.3044 96.5626 72.0554 96.0298 71.8339C94.9504 71.3876 94.2031 70.2806 93.9851 68.7929C93.9298 68.4158 93.9228 68.0906 93.9574 67.8C94.0508 67.0804 94.466 66.4092 95.0438 66.0494C95.6319 65.6896 96.3757 65.6515 96.9881 65.9491C97.2787 66.0874 97.552 66.3019 97.8772 66.6341C98.5034 67.2741 99.0293 68.0595 99.3995 68.9105C99.6555 69.5021 100.008 70.6161 99.4929 71.4707C99.178 72 98.5519 72.3217 97.853 72.3217ZM96.1647 71.5156C96.6698 71.7232 97.2406 71.9585 97.808 71.9758C98.2682 71.9827 98.8874 71.8132 99.1988 71.2908C99.6347 70.5712 99.313 69.5748 99.0846 69.0489C98.7318 68.2394 98.2301 67.4886 97.6316 66.8762C97.3341 66.5718 97.0919 66.3815 96.8393 66.2604C96.3308 66.0148 95.7149 66.0459 95.2271 66.3469C94.7359 66.6514 94.3795 67.2257 94.3034 67.8449C94.2723 68.1044 94.2792 68.402 94.3311 68.7479C94.4245 69.388 94.7947 70.9483 96.1647 71.5156Z" fill="#000001"/>
<path d="M99.0979 81.3179C99.091 81.3179 99.0806 81.3179 99.0737 81.3144C96.0776 80.8716 93.1819 79.6503 90.691 77.7856C90.6149 77.7267 90.5976 77.6195 90.6564 77.5434C90.7152 77.4673 90.8224 77.45 90.8985 77.5088C93.3411 79.3389 96.1849 80.5394 99.1221 80.9754C99.2156 80.9892 99.2813 81.0757 99.2674 81.1726C99.2571 81.2556 99.181 81.3179 99.0979 81.3179Z" fill="#000001"/>
<path d="M99.7868 86.5255C99.7592 86.5255 99.7315 86.5186 99.7073 86.5048C97.5484 85.3699 95.5176 83.9444 93.6805 82.2698C90.8263 79.6748 89.1588 77.0487 88.5914 74.2358C88.4495 73.5438 88.325 72.2844 89.0723 71.6062C89.4009 71.3052 89.8576 71.1564 90.4492 71.1737C91.3211 71.191 92.1652 71.5128 92.9506 71.8553C94.8949 72.7134 96.7527 73.824 98.4722 75.1561C98.5483 75.2149 98.5621 75.3222 98.5033 75.3983C98.4445 75.4744 98.3372 75.4883 98.2611 75.4295C96.5659 74.1147 94.7323 73.0179 92.8122 72.1702C92.0614 71.8415 91.2519 71.5335 90.4423 71.5162C89.951 71.4989 89.567 71.62 89.3075 71.8588C88.6848 72.4228 88.8059 73.5438 88.9339 74.1631C89.4874 76.8999 91.1169 79.4672 93.9193 82.0103C95.739 83.6676 97.7422 85.0758 99.8768 86.1968C99.9598 86.2418 99.9944 86.3456 99.9494 86.4287C99.9079 86.4909 99.8491 86.5255 99.7868 86.5255Z" fill="#000001"/>
<path d="M99.0357 80.2727C98.3818 80.2727 97.676 80.0409 96.9322 79.5843C96.6347 79.4009 96.3337 79.1864 96.133 78.8577C95.7006 78.1554 95.9358 77.1936 96.3787 76.647C96.7592 76.1765 97.2851 75.9309 97.7798 75.9862C98.1466 76.0312 98.4441 76.2249 98.7312 76.4117L98.8108 76.4636C99.2744 76.7681 99.6757 77.2455 100.046 77.9305C100.191 78.2038 100.34 78.5325 100.381 78.8992C100.426 79.3109 100.309 79.6984 100.063 79.9371C99.8764 80.124 99.61 80.2312 99.2502 80.2589C99.181 80.2693 99.1083 80.2727 99.0357 80.2727ZM97.6415 76.3287C97.292 76.3287 96.9288 76.5259 96.6485 76.8684C96.2818 77.3216 96.0811 78.1104 96.4306 78.6778C96.5932 78.9442 96.8561 79.1276 97.1156 79.2902C97.8802 79.7572 98.5894 79.9683 99.2294 79.9198C99.5027 79.8991 99.6999 79.823 99.8279 79.695C99.994 79.5323 100.077 79.2417 100.046 78.9407C100.011 78.6294 99.8764 78.3388 99.7484 78.0966C99.4093 77.4669 99.0426 77.0276 98.6309 76.7577L98.5513 76.7058C98.2953 76.5398 98.0324 76.3702 97.7452 76.3322C97.7072 76.3322 97.6726 76.3287 97.6415 76.3287Z" fill="#000001"/>
<path d="M50.2939 97.9745V116.932C50.2939 119.257 49.3701 121.488 47.7268 123.132L45.0317 125.827H83.4823L80.0642 122.409C78.4659 120.81 77.5663 118.637 77.5663 116.378V97.9399" fill="#131E7D"/>
<path d="M100.161 97.9744C99.2721 97.9432 98.383 97.9121 97.4938 97.881L0.173706 97.7979L0.215222 81.5776C0.215222 81.5776 92.1833 81.5915 92.2248 81.6468C94.0273 83.9927 96.4975 85.8195 99.2652 86.8644L100.161 97.9744Z" fill="#131E7D"/>
<path d="M72.1758 40.2826H55.8428V28.0967H72.2934L72.1758 40.2826Z" fill="#D1D1D1"/>
<path d="M1.6682 2.88086C1.49868 4.90822 1.49176 6.94942 1.64399 8.98023L126.143 8.92142L126.098 2.95697L1.6682 2.88086Z" fill="#4CA6FF"/>
<path d="M87.5334 45.6978H23.2114V53.7103C23.2114 53.7103 86.3501 53.7103 86.4678 53.6273C86.0422 52.6101 86.5128 51.3716 87.3604 50.6693C88.2114 49.967 89.3566 49.7144 90.4602 49.6937C89.7302 49.2612 88.9864 48.8149 88.4259 48.1783C87.8655 47.5417 87.4953 46.6734 87.5334 45.6978Z" fill="#4CA6FF"/>
<path d="M77.5452 97.9014H50.2727V99.6035L77.521 105.08L77.5452 97.9014Z" fill="#000001"/>
<path d="M100.524 98.0329H0.172983C0.0761124 98.0329 0 97.9568 0 97.8599V1.13687C0 1.03999 0.0761124 0.963867 0.172983 0.963867H127.883C127.98 0.963867 128.056 1.03999 128.056 1.13687V21.5472C128.056 21.644 127.98 21.7201 127.883 21.7201C127.786 21.7201 127.71 21.644 127.71 21.5472V1.30986H0.345966V97.687H100.524C100.621 97.687 100.697 97.7631 100.697 97.8599C100.697 97.9568 100.617 98.0329 100.524 98.0329Z" fill="#000001"/>
<path d="M83.4817 126H45.0311C44.9619 126 44.8997 125.958 44.872 125.893C44.8443 125.827 44.8616 125.754 44.91 125.706L47.6051 123.01C49.2035 121.412 50.1203 119.194 50.1203 116.931V97.9742C50.1203 97.8773 50.1964 97.8012 50.2933 97.8012C50.3901 97.8012 50.4662 97.8773 50.4662 97.9742V116.931C50.4662 119.284 49.5114 121.588 47.8473 123.253L45.4463 125.654H83.0631L79.939 122.53C78.3199 120.91 77.3893 118.668 77.3893 116.378V97.9396C77.3893 97.8427 77.4654 97.7666 77.5623 97.7666C77.6591 97.7666 77.7352 97.8427 77.7352 97.9396V116.378C77.7352 118.578 78.6278 120.73 80.1812 122.287L83.5994 125.706C83.6478 125.754 83.6651 125.83 83.6374 125.893C83.6097 125.955 83.5509 126 83.4817 126Z" fill="#000001"/>
<path d="M92.1759 81.7752H0.360117C0.263246 81.7752 0.187134 81.6991 0.187134 81.6022C0.187134 81.5053 0.263246 81.4292 0.360117 81.4292H92.1759C92.2728 81.4292 92.3489 81.5053 92.3489 81.6022C92.3489 81.6991 92.2693 81.7752 92.1759 81.7752Z" fill="#000001"/>
<path d="M90.951 80.0932H1.58119C1.48432 80.0932 1.4082 80.0171 1.4082 79.9202V2.9396C1.4082 2.84272 1.48432 2.7666 1.58119 2.7666H126.101C126.198 2.7666 126.274 2.84272 126.274 2.9396V21.2116C126.274 21.3085 126.198 21.3846 126.101 21.3846C126.004 21.3846 125.928 21.3085 125.928 21.2116V3.1126H1.75417V79.7472H90.951C91.0479 79.7472 91.124 79.8233 91.124 79.9202C91.124 80.0171 91.0444 80.0932 90.951 80.0932Z" fill="#000001"/>
<path d="M125.89 9.09157H1.90663C1.80976 9.09157 1.73364 9.01546 1.73364 8.91859C1.73364 8.82172 1.80976 8.74561 1.90663 8.74561H125.89C125.987 8.74561 126.063 8.82172 126.063 8.91859C126.063 9.01546 125.984 9.09157 125.89 9.09157Z" fill="#000001"/>
<path d="M86.3494 53.8834H23.2107C23.1138 53.8834 23.0377 53.8073 23.0377 53.7104V45.6979C23.0377 45.601 23.1138 45.5249 23.2107 45.5249H87.5326C87.6295 45.5249 87.7056 45.601 87.7056 45.6979C87.7056 45.7948 87.6295 45.8709 87.5326 45.8709H23.3837V53.5375H86.3494C86.4463 53.5375 86.5224 53.6136 86.5224 53.7104C86.5224 53.8073 86.4428 53.8834 86.3494 53.8834Z" fill="#000001"/>
<path d="M72.1751 40.4558H55.8421C55.7452 40.4558 55.6691 40.3797 55.6691 40.2828V28.0968C55.6691 27.9999 55.7452 27.9238 55.8421 27.9238H72.2927C72.3377 27.9238 72.3827 27.9411 72.4173 27.9757C72.4484 28.0103 72.4692 28.0518 72.4657 28.1003L72.3481 40.2863C72.3481 40.3797 72.2685 40.4558 72.1751 40.4558ZM56.015 40.1098H72.0021L72.1163 28.2698H56.015V40.1098Z" fill="#000001"/>
<path d="M59.0007 28.2251C58.9039 28.2251 58.8278 28.149 58.8278 28.0521V21.4955C58.8278 21.4505 59.0215 17.603 64.0276 17.603C68.6947 17.603 69.0995 21.4401 69.1029 21.4782V27.9864C69.1029 28.0832 69.0268 28.1594 68.93 28.1594C68.8331 28.1594 68.757 28.0832 68.757 27.9864V21.4955C68.7431 21.3675 68.373 17.949 64.0276 17.949C59.364 17.949 59.1806 21.3571 59.1737 21.5024V28.0521C59.1737 28.149 59.0942 28.2251 59.0007 28.2251Z" fill="#000001"/>
<path d="M60.4366 28.27C60.3397 28.27 60.2636 28.1939 60.2636 28.097V21.4781C60.2602 21.4608 60.2048 20.7342 60.8103 20.0734C61.4295 19.3987 62.4916 19.0562 63.9655 19.0562C65.4531 19.0562 66.5083 19.4021 67.1103 20.0803C67.6915 20.7412 67.6085 21.4677 67.605 21.4989V27.9898C67.605 28.0866 67.5289 28.1628 67.432 28.1628C67.3352 28.1628 67.2591 28.0866 67.2591 27.9898V21.4781C67.2625 21.4331 67.3248 20.8449 66.8439 20.3017C66.3111 19.7032 65.3424 19.4021 63.9655 19.4021C62.592 19.4021 61.6164 19.7066 61.0663 20.3087C60.5646 20.8553 60.6096 21.4574 60.6096 21.4643V28.097C60.6096 28.1939 60.53 28.27 60.4366 28.27Z" fill="#000001"/>
<path d="M46.2657 51.2612C45.4077 51.2612 44.7089 50.5623 44.7089 49.7043C44.7089 48.8463 45.4077 48.1475 46.2657 48.1475C47.1237 48.1475 47.8226 48.8463 47.8226 49.7043C47.8226 50.5623 47.1237 51.2612 46.2657 51.2612ZM46.2657 48.4934C45.598 48.4934 45.0548 49.0366 45.0548 49.7043C45.0548 50.372 45.598 50.9152 46.2657 50.9152C46.9334 50.9152 47.4766 50.372 47.4766 49.7043C47.4766 49.0366 46.9334 48.4934 46.2657 48.4934Z" fill="#000001"/>
<path d="M51.9747 51.2612C51.1167 51.2612 50.4178 50.5623 50.4178 49.7043C50.4178 48.8463 51.1167 48.1475 51.9747 48.1475C52.8327 48.1475 53.5315 48.8463 53.5315 49.7043C53.5315 50.5623 52.8327 51.2612 51.9747 51.2612ZM51.9747 48.4934C51.307 48.4934 50.7638 49.0366 50.7638 49.7043C50.7638 50.372 51.307 50.9152 51.9747 50.9152C52.6424 50.9152 53.1856 50.372 53.1856 49.7043C53.1856 49.0366 52.6424 48.4934 51.9747 48.4934Z" fill="#000001"/>
<path d="M57.6171 51.2612C56.7592 51.2612 56.0603 50.5623 56.0603 49.7043C56.0603 48.8463 56.7592 48.1475 57.6171 48.1475C58.4751 48.1475 59.174 48.8463 59.174 49.7043C59.174 50.5623 58.4751 51.2612 57.6171 51.2612ZM57.6171 48.4934C56.9494 48.4934 56.4063 49.0366 56.4063 49.7043C56.4063 50.372 56.9494 50.9152 57.6171 50.9152C58.2849 50.9152 58.828 50.372 58.828 49.7043C58.828 49.0366 58.2849 48.4934 57.6171 48.4934Z" fill="#000001"/>
<path d="M63.3254 51.2612C62.4674 51.2612 61.7686 50.5623 61.7686 49.7043C61.7686 48.8463 62.4674 48.1475 63.3254 48.1475C64.1834 48.1475 64.8822 48.8463 64.8822 49.7043C64.8822 50.5623 64.1834 51.2612 63.3254 51.2612ZM63.3254 48.4934C62.6577 48.4934 62.1145 49.0366 62.1145 49.7043C62.1145 50.372 62.6577 50.9152 63.3254 50.9152C63.9931 50.9152 64.5363 50.372 64.5363 49.7043C64.5363 49.0366 63.9931 48.4934 63.3254 48.4934Z" fill="#000001"/>
<path d="M68.9685 51.2612C68.1105 51.2612 67.4116 50.5623 67.4116 49.7043C67.4116 48.8463 68.1105 48.1475 68.9685 48.1475C69.8265 48.1475 70.5253 48.8463 70.5253 49.7043C70.5253 50.5623 69.8265 51.2612 68.9685 51.2612ZM68.9685 48.4934C68.3008 48.4934 67.7576 49.0366 67.7576 49.7043C67.7576 50.372 68.3008 50.9152 68.9685 50.9152C69.6362 50.9152 70.1793 50.372 70.1793 49.7043C70.1793 49.0366 69.6362 48.4934 68.9685 48.4934Z" fill="#000001"/>
<path d="M74.6767 51.2612C73.8187 51.2612 73.1199 50.5623 73.1199 49.7043C73.1199 48.8463 73.8187 48.1475 74.6767 48.1475C75.5347 48.1475 76.2336 48.8463 76.2336 49.7043C76.2336 50.5623 75.5347 51.2612 74.6767 51.2612ZM74.6767 48.4934C74.009 48.4934 73.4658 49.0366 73.4658 49.7043C73.4658 50.372 74.009 50.9152 74.6767 50.9152C75.3444 50.9152 75.8876 50.372 75.8876 49.7043C75.8876 49.0366 75.3444 48.4934 74.6767 48.4934Z" fill="#000001"/>
<path d="M80.3155 51.2612C79.4575 51.2612 78.7587 50.5623 78.7587 49.7043C78.7587 48.8463 79.4575 48.1475 80.3155 48.1475C81.1735 48.1475 81.8724 48.8463 81.8724 49.7043C81.8724 50.5623 81.1735 51.2612 80.3155 51.2612ZM80.3155 48.4934C79.6478 48.4934 79.1046 49.0366 79.1046 49.7043C79.1046 50.372 79.6478 50.9152 80.3155 50.9152C80.9832 50.9152 81.5264 50.372 81.5264 49.7043C81.5264 49.0366 80.9832 48.4934 80.3155 48.4934Z" fill="#000001"/>
<path d="M43.9581 77.5501C43.9511 77.5501 43.9442 77.5501 43.9373 77.5501C42.6849 77.3875 41.1177 77.0657 40.0729 75.9932C39.1042 74.9967 38.6752 73.4535 38.7962 71.3983C38.9035 69.5611 39.3429 67.7446 39.765 65.987C40.2009 64.1774 40.6506 62.3056 40.7371 60.4303C40.7786 59.5065 40.706 57.2713 39.1561 56.4894C38.644 56.2333 38.0351 56.1814 37.5093 56.1607C34.6966 56.0638 31.7213 56.7523 28.1474 58.3301C19.0416 62.3471 11.5584 69.5265 4.67712 76.5364C4.61139 76.6056 4.50068 76.6056 4.43149 76.5398C4.36229 76.4741 4.36229 76.3634 4.42803 76.2942C11.3335 69.2601 18.8444 62.0565 28.009 58.0118C31.6348 56.4133 34.6585 55.7109 37.5231 55.8147C38.087 55.8354 38.7444 55.8943 39.3152 56.178C41.045 57.0534 41.1281 59.4546 41.0865 60.4441C41 62.354 40.5468 64.2397 40.1075 66.0665C39.6888 67.8104 39.2529 69.613 39.1457 71.4191C39.0315 73.3705 39.4294 74.8271 40.3254 75.751C41.2976 76.7474 42.7922 77.0519 43.9892 77.2041C44.0826 77.218 44.1518 77.3045 44.138 77.3979C44.1172 77.4879 44.0445 77.5501 43.9581 77.5501Z" fill="#D1D1D1"/>
<path d="M30.4894 69.8993C30.012 69.8993 29.5692 69.7747 29.1921 69.5256C28.4967 69.0689 28.0988 68.2559 28.0746 67.2353C28.0504 66.239 28.386 65.1561 29.0191 64.1908C30.3407 62.1773 32.5652 61.2951 33.9837 62.2257C35.3987 63.1564 35.4783 65.547 34.1567 67.5605C33.5235 68.5258 32.6656 69.2627 31.7418 69.6398C31.3094 69.8128 30.8873 69.8993 30.4894 69.8993ZM32.6794 62.1981C31.5377 62.1981 30.2057 63.0111 29.3062 64.3811C28.7112 65.2875 28.3963 66.2978 28.4171 67.2284C28.4379 68.1314 28.7804 68.8475 29.3789 69.2385C29.9774 69.6329 30.7697 69.6606 31.6069 69.3215C32.4684 68.9721 33.2675 68.2801 33.8626 67.3737C35.0769 65.5193 35.0458 63.3432 33.7865 62.5164C33.4613 62.2984 33.0807 62.1981 32.6794 62.1981Z" fill="#D1D1D1"/>
<path d="M3.22766 68.842C3.19998 68.842 3.1723 68.8351 3.14809 68.8213C3.0616 68.7763 3.03046 68.6725 3.07543 68.5895C7.33773 60.4101 13.4855 53.1442 20.8546 47.5771C20.9307 47.5183 21.038 47.5356 21.0968 47.6118C21.1556 47.6879 21.1383 47.7951 21.0622 47.8539C13.7346 53.3899 7.62142 60.6143 3.37988 68.7486C3.34875 68.8074 3.28993 68.842 3.22766 68.842Z" fill="#D1D1D1"/>
<path d="M34.5896 41.5632C34.5308 41.5632 34.472 41.5321 34.4408 41.4767C34.3924 41.3937 34.4201 41.2899 34.5031 41.2414C36.1084 40.3142 37.8071 39.4976 39.4504 38.7053C40.8031 38.0548 42.2008 37.3801 43.5363 36.6501C47.1343 34.6848 49.5595 32.6573 51.1683 30.2665C52.1197 28.8548 52.6836 27.4362 52.8427 26.0488C53.0226 24.4468 52.6282 22.8864 51.7599 21.7653C51.1579 20.9903 50.2791 20.3295 49.0683 19.7551C48.0442 19.2638 46.944 18.8936 45.8819 18.5372C45.2903 18.3365 44.6779 18.1324 44.0829 17.9075C42.7648 17.4093 40.8619 16.5685 39.5611 15.0323C38.2603 13.496 37.8451 11.4754 38.5094 9.88731C38.5474 9.79735 38.6478 9.75584 38.7343 9.7939C38.8208 9.83196 38.8657 9.93229 38.8277 10.0188C38.2153 11.4858 38.6063 13.3646 39.824 14.8039C40.7755 15.9284 42.1662 16.8107 44.2074 17.5823C44.7956 17.8037 45.4045 18.0113 45.9926 18.2085C47.0651 18.5683 48.1757 18.942 49.2205 19.4437C50.4798 20.0457 51.4035 20.7343 52.0366 21.5543C52.9604 22.7445 53.379 24.3984 53.1887 26.0868C53.0226 27.5296 52.4414 29.0001 51.4589 30.4568C49.8155 32.896 47.3523 34.9582 43.7058 36.9511C42.36 37.6846 40.9588 38.3593 39.6026 39.0132C37.9662 39.8021 36.2744 40.6152 34.6795 41.5355C34.6484 41.5563 34.6173 41.5632 34.5896 41.5632Z" fill="#D1D1D1"/>
<path d="M15.5267 39.9891C15.1116 39.9891 14.6999 39.9753 14.2951 39.9511C10.358 39.7123 6.66653 38.2765 2.91627 36.6987C2.82978 36.6607 2.78826 36.5603 2.82286 36.4738C2.86091 36.3873 2.96124 36.3458 3.04774 36.3804C6.77032 37.9443 10.4306 39.3698 14.3158 39.6051C16.9279 39.7642 19.6991 39.4079 23.3006 38.4495C27.3795 37.3596 31.192 35.8683 34.6344 34.0138C36.4611 33.0312 38.5265 31.7717 39.9934 29.8999C41.5226 27.9519 42.0969 25.6026 41.5329 23.6166C41.104 22.1081 39.9899 20.6722 38.2186 19.347C37.5128 18.8177 36.7517 18.3333 36.0183 17.8662C35.1983 17.3437 34.3542 16.8074 33.5723 16.1985C32.9668 15.7314 32.2265 15.0809 31.8667 14.2125C31.2093 12.614 32.0396 10.7975 33.0326 9.63148C33.0948 9.55882 33.2021 9.54844 33.2747 9.61072C33.3474 9.673 33.3578 9.78026 33.2955 9.85291C32.3683 10.9428 31.5899 12.6243 32.185 14.081C32.5136 14.8733 33.209 15.4857 33.7799 15.9251C34.5479 16.5203 35.3886 17.0565 36.2016 17.5721C36.942 18.0426 37.7066 18.5305 38.4262 19.0668C40.2563 20.4369 41.4153 21.9351 41.8651 23.5163C42.4601 25.6096 41.8616 28.0765 40.2633 30.111C38.7548 32.0312 36.6514 33.3149 34.7935 34.3148C31.327 36.1797 27.4902 37.6848 23.3836 38.7782C20.308 39.6051 17.8239 39.9891 15.5267 39.9891Z" fill="#D1D1D1"/>
<path d="M11.2676 31.1245C9.32671 31.1245 7.3893 30.9238 5.47266 30.5225C5.37924 30.5017 5.32043 30.4118 5.33773 30.3184C5.35849 30.2249 5.44844 30.1627 5.54185 30.1834C8.8043 30.865 12.129 30.9585 15.4261 30.4637C19.0414 29.9205 21.7365 28.668 23.4317 26.7442C23.9022 26.2114 24.653 25.1596 24.397 24.1043C24.2171 23.3604 23.5909 22.7272 22.4803 22.1702C22.3039 22.0837 22.1274 21.9972 21.9475 21.9141C21.221 21.5716 20.4703 21.2152 19.9133 20.6028C19.0691 19.6721 18.7958 18.1877 19.2006 16.7311C19.5638 15.4129 20.3596 14.2953 21.1414 13.2608C21.906 12.2505 22.8228 11.1225 24.0579 10.4997C24.1444 10.4547 24.2482 10.4893 24.2897 10.5758C24.3312 10.6623 24.3001 10.7661 24.2136 10.8077C23.0442 11.3993 22.1897 12.4477 21.4147 13.4718C20.6502 14.4787 19.8787 15.5651 19.5292 16.8245C19.1591 18.167 19.4012 19.5268 20.1658 20.371C20.6744 20.9315 21.394 21.274 22.0894 21.6027C22.2693 21.6892 22.4526 21.7723 22.6291 21.8622C23.8365 22.4677 24.5215 23.1735 24.7256 24.0247C25.0197 25.2357 24.1998 26.3913 23.6843 26.976C21.9337 28.9621 19.1694 30.2492 15.4711 30.8062C14.0803 31.0173 12.6722 31.1245 11.2676 31.1245Z" fill="#D1D1D1"/>
<path d="M10.7037 24.0457C9.00843 24.0457 7.07449 22.3814 6.05043 19.8868C4.83955 16.9285 5.36196 13.908 7.21287 13.1468C9.06379 12.3891 11.5582 14.1744 12.7725 17.1327C13.9834 20.0909 13.461 23.1115 11.6101 23.8727C11.3195 23.9869 11.015 24.0457 10.7037 24.0457ZM8.13314 13.3129C7.85983 13.3129 7.59343 13.3613 7.34434 13.4651C5.66641 14.1537 5.23049 16.9735 6.36872 19.7553C7.50694 22.5371 9.79723 24.2394 11.4752 23.5509C13.1531 22.8624 13.589 20.0425 12.4508 17.2607C11.4821 14.8976 9.68307 13.3129 8.13314 13.3129Z" fill="#D1D1D1"/>
<path d="M85.4671 78.1593C85.429 78.1593 85.391 78.1454 85.3599 78.1212C84.6264 77.5434 84.4603 76.6057 84.2977 75.6958C84.1455 74.8481 84.0037 74.0454 83.4363 73.5229C82.8135 72.9486 81.8518 72.907 80.9211 72.907L77.6241 72.914C76.8214 72.9174 75.9046 72.8724 75.3338 72.26C74.9186 71.8137 74.8148 71.1874 74.7733 70.7584C74.6072 69.0526 75.0674 67.3676 75.5552 65.7864L75.6763 65.3989C76.1191 63.9596 76.5792 62.4753 76.6035 60.9702C76.6346 59.1468 75.9496 57.5517 74.7733 56.7006C72.9708 55.3997 70.4245 55.9775 68.667 56.5276C63.7232 58.0707 58.8866 60.6311 54.2991 64.1291C53.4791 64.7519 52.6315 65.4404 52.116 66.3539C51.5625 67.333 51.5382 68.4575 52.0503 69.2153C52.2682 69.537 52.5727 69.7896 52.8944 70.0595C53.2439 70.3501 53.6037 70.6511 53.8528 71.0525C54.5793 72.222 54.0742 73.7305 53.358 74.7477C53.0536 75.1768 52.7042 75.5747 52.3616 75.9622C51.8877 76.4985 51.3999 77.0521 51.0574 77.6783C51.0124 77.7614 50.9086 77.7925 50.8221 77.7475C50.7391 77.7025 50.7079 77.5953 50.7529 77.5122C51.1162 76.8514 51.6178 76.284 52.1022 75.7338C52.4378 75.3567 52.7837 74.9622 53.0743 74.5505C53.7282 73.6232 54.1953 72.2635 53.5552 71.2359C53.3373 70.883 53.0121 70.6131 52.6696 70.3259C52.3444 70.0526 52.0088 69.7723 51.7631 69.409C51.1784 68.5406 51.1957 67.2742 51.815 66.1809C52.3651 65.2086 53.2404 64.4959 54.088 63.8523C58.7067 60.3301 63.5779 57.7524 68.5598 56.1954C70.3899 55.6246 73.0435 55.0225 74.9705 56.4169C76.2402 57.3338 76.9771 59.0361 76.946 60.9702C76.9183 62.5237 76.4547 64.0357 76.0015 65.4958L75.8839 65.8833C75.4064 67.4299 74.9532 69.0734 75.1158 70.7169C75.1746 71.3224 75.3234 71.7376 75.5863 72.0178C76.0603 72.5264 76.8525 72.561 77.6206 72.561L80.9177 72.5541C81.9383 72.5541 82.9554 72.6026 83.6681 73.26C84.3185 73.8585 84.4776 74.7581 84.6333 75.6266C84.7925 76.5089 84.9412 77.3427 85.5709 77.8409C85.647 77.8998 85.6574 78.007 85.5986 78.0831C85.5674 78.135 85.5155 78.1593 85.4671 78.1593Z" fill="#D1D1D1"/>
<path d="M85.547 73.274C85.4502 73.274 85.3741 73.1944 85.3741 73.0975C85.3914 71.9384 85.3464 70.7448 84.5818 70.0112C84.1805 69.6272 83.6512 69.4438 83.0907 69.2466C82.724 69.1186 82.3469 68.9871 82.0009 68.7933C80.745 68.0944 79.9251 66.5202 79.9113 64.7867C79.9009 63.2263 80.4544 61.7281 81.0218 60.3303L81.1602 59.9947C81.6792 58.7249 82.2154 57.4101 82.3642 56.0434C82.3746 55.95 82.461 55.8808 82.5544 55.8912C82.6479 55.9015 82.7171 55.988 82.7067 56.0815C82.551 57.4931 82.0044 58.8321 81.4785 60.1227L81.3436 60.4583C80.79 61.825 80.2503 63.2851 80.2607 64.7833C80.2711 66.3956 81.0218 67.8522 82.1704 68.4923C82.4887 68.6688 82.852 68.7968 83.2049 68.9214C83.7757 69.122 84.3673 69.3296 84.8205 69.7621C85.682 70.5925 85.7373 71.8692 85.7166 73.1045C85.7166 73.1979 85.6405 73.274 85.547 73.274Z" fill="#D1D1D1"/>
<path d="M72.4862 25.6062C72.4689 25.6062 72.4516 25.6028 72.4309 25.5993C72.3409 25.5682 72.289 25.4713 72.3202 25.3813C73.0675 23.0943 73.0813 21.3055 72.3651 19.9111C72.1368 19.4717 71.8289 19.0635 71.5279 18.669C71.3307 18.4095 71.1301 18.1431 70.9467 17.8663C69.4556 15.5931 69.4106 12.5034 70.836 10.1817C70.8844 10.0987 70.9917 10.0745 71.0747 10.1264C71.1577 10.1748 71.1819 10.2821 71.1301 10.3651C69.7739 12.5726 69.8154 15.5135 71.2338 17.676C71.4068 17.9424 71.6075 18.2054 71.8012 18.458C72.1091 18.8628 72.4274 19.2849 72.6696 19.752C73.4307 21.2329 73.4203 23.1081 72.6454 25.4851C72.6246 25.5613 72.5589 25.6062 72.4862 25.6062Z" fill="#D1D1D1"/>
<path d="M88.4982 34.6397C88.4567 34.6397 88.4117 34.6397 88.3702 34.6397C87.3738 34.619 86.502 34.2903 85.9138 33.7159C85.0454 32.8613 84.8759 31.5777 84.824 30.557C84.8137 30.3701 84.8067 30.1833 84.7998 29.9965C84.7687 29.1038 84.7341 28.18 84.3847 27.3738C83.9764 26.4431 83.2153 25.7718 82.4057 25.0591C81.7622 24.4917 81.098 23.9069 80.624 23.1769C79.5619 21.5334 79.5377 19.1426 80.5514 16.6237C81.6827 13.8039 83.6235 11.4718 85.1838 9.75571C85.2496 9.68651 85.3568 9.67959 85.4295 9.74533C85.4987 9.81107 85.5056 9.91832 85.4398 9.99098C83.8968 11.6864 81.9837 13.9872 80.8696 16.7552C79.8975 19.1702 79.9148 21.4434 80.9146 22.99C81.3609 23.6786 82.0079 24.2495 82.6341 24.7996C83.4367 25.5054 84.2636 26.2355 84.7029 27.2354C85.08 28.1039 85.1146 29.0588 85.1492 29.9826C85.1562 30.1694 85.1631 30.3528 85.17 30.5362C85.2184 31.4946 85.3741 32.6952 86.156 33.4668C86.6784 33.9789 87.4672 34.273 88.3771 34.2937C89.2247 34.3145 90.055 34.1207 90.8611 33.9304C90.9545 33.9097 91.048 33.965 91.0687 34.0584C91.0895 34.1519 91.0341 34.2453 90.9407 34.266C90.1865 34.4425 89.3389 34.6397 88.4982 34.6397Z" fill="#D1D1D1"/>
<path d="M107.858 18.2529C107.806 18.2529 107.754 18.2529 107.702 18.2529C106.145 18.2356 104.879 17.9899 103.827 17.4986C103.53 17.3603 103.243 17.2011 102.966 17.0454C102.523 16.7998 102.104 16.5645 101.648 16.4089C100.126 15.8968 98.4441 16.3708 96.998 16.9001C96.7973 16.9728 96.5932 17.0523 96.3891 17.1285C95.0536 17.6301 93.6698 18.156 92.2271 18.1006C90.9713 18.0591 89.5943 17.3395 89.5182 16.0906C89.494 15.6927 89.6116 15.3121 89.7396 14.9593C90.4281 13.0599 91.5905 11.337 93.1024 9.98081C93.1751 9.91508 93.2823 9.922 93.348 9.99465C93.4103 10.0673 93.4069 10.1746 93.3342 10.2403C91.8638 11.5584 90.736 13.2329 90.0683 15.0803C89.9541 15.3986 89.8469 15.7411 89.8676 16.0733C89.9299 17.08 91.1235 17.7201 92.2444 17.7581C93.6214 17.8066 94.9706 17.298 96.2749 16.8067C96.479 16.7306 96.6832 16.6545 96.8838 16.5784C98.3853 16.0283 100.136 15.5405 101.762 16.0871C102.25 16.2532 102.703 16.5057 103.139 16.7479C103.412 16.9001 103.692 17.0593 103.976 17.1907C104.983 17.6612 106.204 17.8965 107.706 17.9103C112.947 17.9657 118.437 15.3986 122.762 10.8803C122.828 10.8111 122.938 10.8077 123.008 10.8734C123.077 10.9391 123.08 11.0498 123.015 11.119C118.666 15.6581 113.151 18.2529 107.858 18.2529Z" fill="#D1D1D1"/>
</svg>